<?xml version="1.0" encoding="utf-8"?>
<!-- Generator: Adobe Illustrator 22.0.1, SVG Export Plug-In . SVG Version: 6.00 Build 0)  -->
<svg version="1.1" xmlns="http://www.w3.org/2000/svg" xmlns:xlink="http://www.w3.org/1999/xlink" x="0px" y="0px"
	 viewBox="0 0 1200 1200" style="enable-background:new 0 0 1200 1200;" xml:space="preserve">
<style type="text/css">
	.st0{display:none;}
	.st1{display:inline;fill:#F3BABA;}
	.st2{fill:#FFFFFF;}
	.st3{fill:#69AD44;}
	.st4{fill:#E63327;}
	.st5{fill:url(#SVGID_1_);}
	.st6{opacity:0.41;}
	.st7{fill:none;stroke:#FFFFFF;stroke-width:20;stroke-linecap:round;stroke-linejoin:round;stroke-miterlimit:10;}
	.st8{fill:#723A18;}
	.st9{fill:#8F5B3E;}
	.st10{fill:#5BBA47;}
</style>
<g id="BCKGRDN" class="st0">
	<rect x="1" y="-1" class="st1" width="1204" height="1204"/>
</g>
<g id="APPLE_copy">
	<path class="st2" d="M615.3,332.5H610c-0.5,0-0.9,0.1-1.3,0.2h8C616.2,332.6,615.7,332.5,615.3,332.5z M604.2,336.8
		c-0.2,0.6-0.3,1.2-0.3,1.8v1c0.9,2.1,1.8,4.2,2.6,6.3c0.3-4.2,0.7-8.6,1.3-13C606.1,333.6,604.8,335,604.2,336.8z"/>
	<path class="st2" d="M984.1,511c0,0.9,0,1.8,0,2.7c-0.1,4.6-0.3,9.3-0.7,13.8v0.1c-1.2,11-4.2,27.5-11.5,49.6
		c-21.3,64.7-79.2,177.1-235,338.2c-17,20.8-42.8,34-71.6,34c-19.2,0-37.1-5.9-51.9-15.9c-14.8,10.1-32.7,15.9-51.9,15.9
		c-26.8,0-50.9-11.4-67.8-29.6h-0.2C331.3,753.2,273.5,638.1,253,573.5c-4.9-15.5-7.7-28.1-9.2-37.8c-1.1-8.1-1.6-16.3-1.6-24.7
		c0-102.1,82.8-184.9,184.9-184.9c22.2,0,43.5,3.9,63.2,11.1c6.6,2.4,13.1,5.2,19.4,8.4c-0.3-0.4-0.5-0.8-0.8-1.1
		c-10.8-15.7-17.9-36.1-17.9-62.6c0-6,4.9-10.8,10.8-10.8c54.9,0,83.8,31.4,98.9,61.7c1.2,2.3,2.2,4.6,3.2,6.9
		c0.9,2.1,1.8,4.2,2.6,6.3c0.3-4.2,0.7-8.6,1.3-13c0.3-0.1,0.5-0.2,0.8-0.3h8c-0.4-0.1-0.9-0.2-1.3-0.2H610c-0.5,0-0.9,0.1-1.3,0.2
		h-0.8c6.7-50.7,32.5-111.8,113.4-137c8.4-2.6,17.4,2.1,20,10.5c17.6,56.7,5.8,101-15.8,134.2c-0.3,0.4-0.5,0.9-0.8,1.3
		c10.8-4.8,22.2-8.5,33.9-11.2c0.9-0.2,1.8-0.4,2.7-0.6c0.8-0.2,1.6-0.3,2.4-0.5c11.5-2.2,23.3-3.4,35.5-3.4
		C901.3,326.1,984.1,408.9,984.1,511z"/>
	<path class="st2" d="M608.6,332.7c-0.3,0.1-0.5,0.1-0.8,0.3c0-0.1,0-0.2,0-0.3H608.6z"/>
	<path class="st2" d="M616.6,332.7h-8c0.4-0.1,0.9-0.2,1.3-0.2h5.3C615.7,332.5,616.2,332.6,616.6,332.7z"/>
	<path class="st2" d="M509.7,345.5c-6.3-3.1-12.7-5.9-19.4-8.4c6,2,12.2,4.4,18.6,7.2C509.2,344.8,509.5,345.1,509.7,345.5z"/>
	<path class="st2" d="M758.6,330.5c-11.8,2.6-23.1,6.4-33.9,11.2c0.3-0.4,0.6-0.9,0.8-1.3C737.7,335.7,749,332.6,758.6,330.5z"/>
	<path class="st2" d="M608.6,332.7c-0.3,0.1-0.5,0.1-0.8,0.3c-0.6,4.4-1,8.8-1.3,13c-0.8-2.1-1.7-4.2-2.6-6.3
		c-1-2.3-2.1-4.6-3.2-6.9c0.1,0,0.2,0,0.3,0H608.6z"/>
</g>
<g id="APPLE">
	<path class="st4" d="M959,519.5c0,0.8,0,1.7,0,2.5c-0.1,4.3-0.3,8.6-0.7,12.9v0c-1.1,10.3-3.9,25.7-10.7,46.3
		c-19.9,60.3-73.8,165.2-219.2,315.4c-15.8,19.4-39.9,31.7-66.8,31.7c-17.9,0-34.6-5.5-48.4-14.9c-13.8,9.4-30.5,14.9-48.4,14.9
		c-25,0-47.5-10.6-63.3-27.6h-0.2c-151.2-155.4-205.2-262.7-224.3-323c-4.6-14.5-7.1-26.2-8.6-35.3c-1-7.5-1.5-15.2-1.5-23
		c0-95.3,77.2-172.5,172.5-172.5S612,424.2,612,519.5v0c0.7,0,1.3,0,2,0c0-95.3,77.2-172.5,172.5-172.5S959,424.2,959,519.5z"/>
</g>
<g id="Layer_1_copy_2">
	<linearGradient id="SVGID_1_" gradientUnits="userSpaceOnUse" x1="785.7856" y1="448.7834" x2="785.7856" y2="594.4955">
		<stop  offset="3.162183e-07" style="stop-color:#5BBA47"/>
		<stop  offset="1" style="stop-color:#049948"/>
	</linearGradient>
	<path class="st5" d="M889.9,499.6c0,0.3,0,0.5,0,0.8c0,1.3-0.1,2.6-0.2,3.9v0c-0.3,3.1-1.2,7.7-3.2,13.9c-6,18.2-22.2,49.7-66,94.9
		c-0.7,0.8-1.4,1.6-2.1,2.3c0,0-0.1,0.1-0.1,0.1l-32.8,32.2c0,0-17.5-17.7-30.7-31c-3.1-3.1-5.9-6-8.3-8.3c-0.1-0.1-0.1-0.1-0.2-0.2
		c-41.1-43.5-56.2-73.8-61.7-91.1c-1.4-4.4-2.2-7.9-2.6-10.6c-0.3-2.3-0.5-4.6-0.5-6.9c0-28.7,23.2-51.9,51.9-51.9
		c28.7,0,51.9,23.2,51.9,51.9v0c0.2,0,0.4,0,0.6,0c0-28.7,23.2-51.9,51.9-51.9C866.7,447.7,889.9,471,889.9,499.6z"/>
</g>
<g id="REFLECT" class="st6">
	<path class="st7" d="M409.3,401.7c0,0-62.7,34.7-80,102.7"/>
</g>
<g id="STEM">
	<path class="st8" d="M615,520.7h-4.9c-3.1,0-5.7-2.5-5.7-5.7V358.7c0-3.1,2.5-5.7,5.7-5.7h4.9c3.1,0,5.7,2.5,5.7,5.7V515
		C620.7,518.1,618.1,520.7,615,520.7z"/>
	<path class="st9" d="M612.7,353h-2.6c-3.1,0-5.7,2.5-5.7,5.7V515c0,3.1,2.5,5.7,5.7,5.7h2.6V353z"/>
</g>
<g id="LEAFS">
	<path class="st10" d="M727.9,224.1c34.8,111.9-83.8,159.4-83.8,159.4c-5.7,1.8-11.8-1-14.3-6.2l-0.1,0.2c0,0-28.7-126.5,83.2-161.3
		C719.2,214.2,725.9,217.8,727.9,224.1z"/>
	<path class="st10" d="M506,298.9c0,77.2,83.9,83.9,83.9,83.9c3.9,0,7.2-2.9,7.8-6.7l0.1,0.1c0,0-6.7-85.2-83.9-85.2
		C509.6,291,506,294.6,506,298.9z"/>
</g>
<g id="LEAFS_copy">
</g>
<g id="Layer_9">
</g>
</svg>
