<svg xmlns="http://www.w3.org/2000/svg" viewBox="0 0 770.96 770.96">
  <defs>
    <style>
      .cls-1, .cls-2 {
        fill: #ca4d4d;
      }

      .cls-2, .cls-3 {
        stroke: #fff;
        stroke-linecap: round;
        stroke-linejoin: round;
        stroke-width: 15px;
      }

      .cls-3 {
        fill: none;
      }
    </style>
  </defs>
  <title>instestine</title>
  <g id="Layer_7" data-name="Layer 7">
    <circle class="cls-1" cx="385.48" cy="385.48" r="385.48"/>
  </g>
  <g id="SLINTESTINE">
    <path class="cls-2" d="M390.17,576h68.09s-22-61.08-16-108.14l-7-25s18,57.07,65.08,32c14.6-7.77,21.59-16.4,24.28-24.61a27.86,27.86,0,0,0,1-4.22c2.68-16.47-10.29-30.25-10.29-30.25" transform="translate(-12.61 -10.61)"/>
    <path class="cls-2" d="M529.13,446.5s28.26,8.32,38.27-17.71,12-54.07,2-74.1" transform="translate(-12.61 -10.61)"/>
    <path class="cls-3" d="M539.36,368.71s90.12-36,34-110.14c0,0-36-33.22-86-17.19" transform="translate(-12.61 -10.61)"/>
    <path class="cls-3" d="M491.3,255.57s-27.32-81-112.42-27.94" transform="translate(-12.61 -10.61)"/>
    <path class="cls-3" d="M394.18,257.57s-35.83-89-115.93-12.94" transform="translate(-12.61 -10.61)"/>
    <path class="cls-3" d="M301.06,250.56c-4,0-95.34-21.05-73.31,69.07" transform="translate(-12.61 -10.61)"/>
    <path class="cls-3" d="M279,358.7s-14-54.07-54.07-35-4,80.1,20,85.1c0,0,8,24,9,37.05s26,20,27,11,3-39.05,3-39.05,53.06-18,48.06-55.07-39.05-54.07-39.05-54.07" transform="translate(-12.61 -10.61)"/>
    <path class="cls-3" d="M328.5,341.88s57.67-46.26,17.62-94.32" transform="translate(-12.61 -10.61)"/>
    <path class="cls-3" d="M358.75,306.38s47.44,24.28,71.47-22.78" transform="translate(-12.61 -10.61)"/>
    <path class="cls-3" d="M425.13,298.88s59.16,62.82,98.21-16.28" transform="translate(-12.61 -10.61)"/>
    <path class="cls-3" d="M526.35,322.65s-61.15-14.8-70.16,52.29" transform="translate(-12.61 -10.61)"/>
    <path class="cls-3" d="M484.29,384.73S386.06,355.88,368,448" transform="translate(-12.61 -10.61)"/>
    <path class="cls-3" d="M384.16,476.85s-26-60.08-45.05,1S386.17,577,386.17,577" transform="translate(-12.61 -10.61)"/>
    <path class="cls-3" d="M560.5,282s10,6.5,8,13" transform="translate(-12.61 -10.61)"/>
    <path class="cls-3" d="M422,402.5c-1.5,1-21,13.5-27,27" transform="translate(-12.61 -10.61)"/>
    <path class="cls-3" d="M254.5,275s26-12,36.5-1.5" transform="translate(-12.61 -10.61)"/>
  </g>
</svg>
