<svg xmlns="http://www.w3.org/2000/svg" viewBox="0 0 770.96 770.96">
  <defs>
    <style>
      .cls-1, .cls-2 {
        fill: #ca4d4d;
      }

      .cls-2 {
        stroke: #fff;
      }

      .cls-2, .cls-3 {
        stroke-linecap: round;
        stroke-linejoin: round;
        stroke-width: 16px;
      }

      .cls-3 {
        fill: none;
        stroke: #fcfcfc;
      }
    </style>
  </defs>
  <title>pancreas</title>
  <g id="Layer_7" data-name="Layer 7">
    <circle class="cls-1" cx="385.48" cy="385.48" r="385.48"/>
  </g>
  <g id="PANCREAS">
    <path class="cls-2" d="M209.1,303.1S93.6,388.59,168.6,508.59c62,99.24,157.92,61,195.17,14.25,7.78-9.78,13-19.92,14.82-29.25,10.5-54,21-106.5,34.5-99s49.5,0,52.5-13.5,54,21,63,0,9-12,39-19.5,0-34.5,33-39,22.5-30,54-30,33-30,28.49-34.5-54-13.5-61.49-9-94.5-6-118.5,12-39,28.5-73.49,27-64.5-4.5-70.5,0-13.5,4.5-42,7.5-75,0-75,0S212.1,295.6,209.1,303.1Z" transform="translate(-12.61 -10.61)"/>
    <path class="cls-2" d="M482.08,462.09s-88.49,4.5-103.49,40.5" transform="translate(-12.61 -10.61)"/>
    <ellipse class="cls-2" cx="477.39" cy="412.72" rx="17" ry="39.67"/>
    <path class="cls-3" d="M193,428s5,85,86,85" transform="translate(-12.61 -10.61)"/>
  </g>
</svg>
